<?xml version="1.0" encoding="utf-8"?>
<!-- Generator: Adobe Illustrator 23.0.1, SVG Export Plug-In . SVG Version: 6.00 Build 0)  -->
<svg version="1.1" xmlns="http://www.w3.org/2000/svg" xmlns:xlink="http://www.w3.org/1999/xlink" x="0px" y="0px"
	 viewBox="0 0 1220.62 401.62" style="enable-background:new 0 0 1220.62 401.62;" xml:space="preserve">
<style type="text/css">
	.st0{fill-rule:evenodd;clip-rule:evenodd;fill:#FFFFFF;}
	.st1{fill-rule:evenodd;clip-rule:evenodd;fill:#FAD472;}
	.st2{fill-rule:evenodd;clip-rule:evenodd;fill:#E15F3E;}
	.st3{fill-rule:evenodd;clip-rule:evenodd;fill:#695599;}
	.st4{fill-rule:evenodd;clip-rule:evenodd;fill:#427CB7;}
	.st5{fill-rule:evenodd;clip-rule:evenodd;fill:#4FAC68;}
	.st6{fill-rule:evenodd;clip-rule:evenodd;fill:#F5BD31;}
	.st7{fill-rule:evenodd;clip-rule:evenodd;fill:#DF4333;}
	.st8{fill-rule:evenodd;clip-rule:evenodd;fill:#442984;}
	.st9{fill-rule:evenodd;clip-rule:evenodd;fill:#2166AA;}
	.st10{fill-rule:evenodd;clip-rule:evenodd;fill:#2DA24A;}
</style>
<g id="Capa_2">
</g>
<g id="Capa_1">
	<g>
		<path class="st0" d="M430.99,163.89v28.6h23.44v24.08h-23.44v38.06c0,12.69,3.23,18.49,12.9,18.49c4.52,0,6.67-0.22,9.68-0.86
			l0.21,24.73c-4.09,1.5-12.04,2.8-21.07,2.8c-10.54,0-19.35-3.66-24.73-9.03c-6.02-6.24-9.03-16.34-9.03-31.18v-43h-13.98v-24.08
			h13.98v-19.78L430.99,163.89L430.99,163.89z M1142.59,272.26c0,9.89,0.43,19.57,1.72,25.37h-29.46l-1.94-10.54h-0.64
			c-6.88,8.39-17.63,12.9-30.1,12.9c-21.29,0-33.97-15.48-33.97-32.25c0-27.31,24.51-40.21,61.71-40.21v-1.29
			c0-5.59-3.01-13.55-19.14-13.55c-10.75,0-22.15,3.66-29.03,7.74l-6.02-20.86c7.31-4.09,21.72-9.46,40.85-9.46
			c35.05,0,46.01,20.64,46.01,45.37V272.26L1142.59,272.26z M1110.98,247.96L1110.98,247.96c-17.2,0-30.54,4.09-30.54,16.56
			c0,8.39,5.59,12.47,12.9,12.47c7.96,0,14.83-5.38,16.99-12.04c0.43-1.72,0.65-3.66,0.65-5.59V247.96L1110.98,247.96z
			 M1045.31,294.84c-5.81,2.79-16.77,4.95-29.24,4.95c-33.97,0-55.69-20.86-55.69-53.76c0-30.53,21.07-55.69,60.21-55.69
			c8.6,0,18.06,1.5,24.94,4.08l-5.16,24.3c-3.87-1.72-9.67-3.23-18.27-3.23c-17.2,0-28.38,12.26-28.17,29.24
			c0,19.35,12.9,29.46,28.81,29.46c7.74,0,13.76-1.29,18.71-3.44L1045.31,294.84L1045.31,294.84z M885.66,255.49
			c1.08,13.55,14.41,20,29.67,20c11.18,0,20.21-1.51,29.03-4.52l4.3,22.15c-10.75,4.52-23.87,6.67-38.06,6.67
			c-35.69,0-56.12-20.64-56.12-53.54c0-26.66,16.77-56.12,53.11-56.12c33.97,0,46.87,26.45,46.87,52.46c0,5.59-0.65,10.54-1.07,12.9
			H885.66L885.66,255.49z M924.15,233.13L924.15,233.13c0-7.95-3.44-21.29-18.28-21.29c-13.97,0-19.57,12.69-20.43,21.29H924.15
			L924.15,233.13z M827.87,163.89v28.6h23.44v24.08h-23.44v38.06c0,12.69,3.23,18.49,12.9,18.49c4.52,0,6.67-0.22,9.68-0.86
			l0.21,24.73c-4.08,1.5-12.04,2.8-21.07,2.8c-10.54,0-19.35-3.66-24.73-9.03c-6.02-6.24-9.03-16.34-9.03-31.18v-43h-13.98v-24.08
			h13.98v-19.78L827.87,163.89L827.87,163.89z M690.23,278.71l33.11-41.28c6.02-6.88,10.75-12.26,16.77-18.49v-0.43h-46.23v-26.02
			h86.01v19.78l-31.61,39.78c-5.81,6.67-11.18,13.33-17.2,19.14v0.43h50.53v26.02h-91.39V278.71L690.23,278.71z M680.23,272.26
			c0,9.89,0.43,19.57,1.72,25.37h-29.46l-1.93-10.54h-0.65c-6.88,8.39-17.63,12.9-30.1,12.9c-21.29,0-33.97-15.48-33.97-32.25
			c0-27.31,24.51-40.21,61.71-40.21v-1.29c0-5.59-3.01-13.55-19.14-13.55c-10.75,0-22.15,3.66-29.03,7.74l-6.02-20.86
			c7.31-4.09,21.72-9.46,40.85-9.46c35.05,0,46.01,20.64,46.01,45.37V272.26L680.23,272.26z M648.62,247.96L648.62,247.96
			c-17.2,0-30.53,4.09-30.53,16.56c0,8.39,5.59,12.47,12.9,12.47c7.96,0,14.84-5.38,16.99-12.04c0.43-1.72,0.64-3.66,0.64-5.59
			V247.96L648.62,247.96z M490.07,192.49l14.19,48.81c2.58,8.82,4.3,17.2,6.02,25.59h0.64c1.72-8.6,3.44-16.56,5.81-25.59
			l13.55-48.81h34.4l-39.13,105.14h-32.68l-38.27-105.14H490.07z"/>
		<g>
			<path class="st1" d="M288.68,160.2c10.1,0,11.98,6.93,17.56,15.35c7.87,11.88,62.32,94.76,61.88,100.46
				c-0.44,5.7-23.7,21.06-52.22,16.67c-28.52-4.39-50.47-38.16-50.47-93.01C265.42,180.82,275.95,160.2,288.68,160.2z"/>
			<path class="st2" d="M298.46,128.62c2.14,1.74,0.11,2.49-5.46,7.46c-8.3,7.41-56.94,58.35-17.45,131.17
				c11.23,20.71,2.63,32.46-14.04,35.53c-14.98,2.76-23.14-21.52-25.01-33.78c0,0-17.55-80.28,33.18-123.6
				C269.67,145.4,294.16,125.11,298.46,128.62z"/>
			<path class="st3" d="M288.07,124.23c1.67,1.94-7,6.99-13.15,9.63c-6.14,2.63-60.15,32.93-48.3,129.45c0,0,8.78,32.03-10.09,37.29
				c-18.87,5.26-26.88-14.92-25.51-37.73c1.37-22.81,11.2-103.1,75.18-132.05C266.2,130.81,285.43,121.16,288.07,124.23z"/>
			<path class="st4" d="M273.36,120.28c1.75,2.63-0.74,3.13-12.58,7.93c-11.85,4.8-73.87,38.58-75.62,121.49
				c0,0,3.07,35.1-19.31,36.41c-22.38,1.32-19.31-31.59-17.11-46.06c2.19-14.48,26.64-79.11,78.55-103.97
				C273.99,113.7,273.36,120.28,273.36,120.28z"/>
			<path class="st5" d="M150.26,212.75c0,0,17.11-37.41,31.16-48.38c14.04-10.97,18.87-23.25-2.63-26.32
				c-21.5-3.07-90.84-7.46-92.16-2.63C85.31,140.25,136.66,167.88,150.26,212.75z"/>
			<path class="st6" d="M266.48,219.78c4.7,42.95,24.55,69.09,49.41,72.91c28.53,4.39,51.78-10.97,52.22-16.67
				c0.23-2.96-14.32-26.7-29.48-50.52C307.72,224.14,284.75,222.27,266.48,219.78z"/>
			<path class="st7" d="M260.61,219.33c-9.71-1.4-18.08-3-25.61-4.8c-3.94,29.56,1.5,54.47,1.5,54.47
				c1.87,12.26,10.03,36.54,25.01,33.78c16.68-3.07,25.28-14.82,14.04-35.53C266.17,249.94,261.77,233.88,260.61,219.33z"/>
			<path class="st8" d="M226.75,212.45c-8.47-2.37-16.03-5.06-23.62-8.1c-8.99,24.65-11.48,47.85-12.12,58.51
				c-1.37,22.81,6.63,42.99,25.51,37.73c18.87-5.26,10.09-37.29,10.09-37.29C224.22,243.78,224.59,226.93,226.75,212.45z"/>
			<path class="st9" d="M194.51,200.67c-7.38-3.16-15.11-6.66-24.01-10.52c-13.61,21.75-20.64,42.46-21.77,49.91
				c-2.19,14.48-5.27,47.38,17.11,46.06c22.38-1.32,19.31-36.41,19.31-36.41C185.55,230.91,189.11,214.64,194.51,200.67z"/>
			<path class="st10" d="M158.78,185.84c-11.7-4.89-21.49-8.08-29.67-10.04c8.9,10.51,16.88,22.89,21.15,36.96
				c0,0,5.66-12.37,13.14-24.97C161.9,187.14,160.36,186.5,158.78,185.84z"/>
		</g>
	</g>
</g>
</svg>
